<svg width="61" height="60" viewBox="0 0 61 60" fill="none" xmlns="http://www.w3.org/2000/svg">
<path d="M22.306 54.8917C18.0255 53.7545 14.261 51.6607 10.9743 48.7365C9.94238 49.0794 8.89138 49.4224 7.82127 49.7473C7.32443 49.8917 6.82759 49.8375 6.31165 49.657C5.39441 49.3321 4.84025 48.7004 4.43896 47.9242C3.88479 46.8953 3.17775 45.9567 2.62359 44.9278C2.12675 43.9711 1.40061 43.1408 0.980208 42.148C0.770008 41.6607 0.215844 41.3357 0.215844 40.722C-0.280993 39.9639 0.196734 39.296 0.483371 38.6282C0.559807 38.4477 0.655353 38.213 0.827335 38.1408C1.51526 37.852 1.85923 37.2022 2.4325 36.8051C2.70003 36.6245 2.98666 36.426 3.29241 36.2094C2.8529 34.1336 2.47072 32.0578 2.47072 29.9278C2.47072 27.8159 2.87201 25.7762 3.29241 23.7545C2.54715 23.1047 1.85923 22.4729 1.13308 21.8773C0.387826 21.2635 -0.0516839 20.5054 0.0438616 19.7112C0.101189 19.278 0.234953 18.8087 0.464262 18.4477C1.1713 17.3827 1.82101 16.2635 2.50894 15.1805C3.0631 14.3141 3.54083 13.4116 4.15232 12.5632C4.47717 12.13 4.66827 11.6245 4.99312 11.1733C5.62372 10.3249 6.88492 9.90975 7.91681 10.1986C8.83405 10.4513 9.69396 10.8303 10.6303 10.9928C10.7259 11.0108 10.8023 11.1372 10.8978 11.2274C14.2037 8.3213 17.9682 6.24549 22.2869 5.0361C22.4588 4.54874 22.4971 4.02527 22.7073 3.51986C22.8601 3.14079 22.8219 2.67148 22.8984 2.25632C23.1086 1.17329 23.8156 0.541516 24.8284 0.216606C25.1914 0.108303 25.5545 0 25.994 0C28.6693 0.0361011 31.3446 0.0361011 34.0199 0C34.7842 0 35.4339 0.288809 36.0454 0.613718C36.5996 0.884477 36.9053 1.46209 37.0582 2.00361C37.3257 2.99639 37.4786 4.00722 37.6888 5.05415C41.9883 6.20939 45.7528 8.2852 49.0396 11.2094C50.0715 10.8664 51.1225 10.5235 52.1926 10.1986C52.6895 10.0542 53.1863 10.1083 53.7022 10.2888C54.6195 10.6137 55.1736 11.2455 55.5749 12.0217C56.1291 13.0505 56.8361 13.9892 57.3903 15.0181C57.8871 15.9747 58.6133 16.8051 59.0337 17.7978C59.2439 18.2852 59.798 18.6101 59.798 19.2238C60.2949 19.982 59.8171 20.6498 59.5305 21.3177C59.4541 21.4982 59.3585 21.7329 59.1865 21.8051C58.4986 22.0939 58.1547 22.7437 57.5814 23.1408C57.3139 23.3213 57.0272 23.5199 56.7215 23.7365C57.161 25.8123 57.5432 27.8881 57.5432 30.018C57.5432 32.13 57.1992 34.1697 56.7215 36.1913C57.4667 36.8412 58.1547 37.4729 58.8808 38.0686C59.6261 38.6823 60.0656 39.4404 59.97 40.2347C59.9127 40.6679 59.798 41.1372 59.5496 41.4982C58.8617 42.5451 58.212 43.6282 57.5432 44.6931C56.7024 46.0108 56.0144 47.4368 55.0399 48.6823C54.8679 49.3682 54.18 49.4224 53.6831 49.6751C53.1481 49.9458 52.613 49.8736 52.0206 49.7112C51.1416 49.4765 50.3008 49.0614 49.3836 48.9531C49.288 48.935 49.2116 48.8087 49.116 48.7184C45.8102 51.6607 42.0648 53.7545 37.6888 54.9278C37.4786 55.9025 37.2875 56.9134 37.0582 57.9061C36.8289 58.8809 36.141 59.4946 35.1664 59.7834C34.8033 59.8917 34.4211 60 34.0007 60C31.3255 59.9639 28.6502 59.9639 25.9749 60C25.2106 60 24.5608 59.7112 23.9494 59.3863C23.3952 59.1155 23.0703 58.5379 22.9557 57.9964C22.7455 56.9314 22.5353 55.9386 22.306 54.8917ZM23.5481 38.9892C23.9302 38.7906 24.3698 38.6643 24.3889 38.231C24.4271 37.5812 24.5226 36.9134 24.3698 36.2996C24.1022 35.2527 23.6245 34.2419 23.3379 33.1949C23.1468 32.5271 22.7264 31.8953 22.7455 31.1733C22.134 29.7473 21.7518 28.2491 21.2359 26.8051C20.8155 25.6137 20.5097 24.3863 20.0511 23.213C19.8027 22.5632 19.7453 21.8412 19.2867 21.2635C19.2485 21.2094 19.2294 21.1733 19.2294 21.1733C18.7135 20.8484 18.1784 20.9567 17.7198 20.9567C17.4523 21.1913 17.2229 21.3899 17.0127 21.5704C16.9936 22.148 16.5541 22.5993 16.6306 23.1588C15.9617 24.5668 15.6751 26.083 15.1209 27.5271C14.8343 28.2671 14.6623 29.0253 14.433 29.7834C14.2228 30.5415 13.7642 31.2274 13.7642 32.0397C13.0381 33.574 12.675 35.2166 12.1399 36.8231C12.0062 37.2202 11.9297 37.5993 12.1973 37.9783C12.2737 38.0866 12.2355 38.2491 12.2355 38.231C12.5412 38.5379 12.7705 38.7545 12.9616 38.9711C13.3247 38.9711 13.7069 38.9711 14.1082 38.9711C14.3757 38.6462 14.6432 38.3394 14.8916 38.0325C14.8343 37.0036 15.0636 36.3177 15.5605 35.2166C17.4331 35.2166 19.3058 35.2166 21.1785 35.2166C21.3314 35.7942 21.4078 36.3538 21.618 36.8773C21.7136 37.0939 21.8091 37.3105 21.7709 37.5271C21.7136 38.1949 21.9429 38.7184 22.7455 38.9711C22.9366 38.9892 23.2232 38.9892 23.5481 38.9892ZM28.0196 38.9892C28.5355 38.9531 29.1279 39.0975 29.5483 38.7004C29.7012 38.5199 29.835 38.3394 30.026 38.0866C30.026 36.2816 30.026 34.3863 30.026 32.491C31.421 32.491 32.7969 32.4368 34.1536 32.509C34.9753 32.5451 35.6441 32.3105 36.2938 31.9314C36.5996 31.7509 36.8671 31.4801 37.1346 31.2274C37.8417 30.5776 38.1856 29.7834 38.2047 28.8448C38.2047 27.3646 38.2047 25.9025 38.2047 24.4224C38.2047 24.2058 38.1474 23.9711 38.0901 23.7545C37.8799 22.9783 37.4404 22.4007 36.848 21.8953C36.1601 21.2996 35.3575 20.9386 34.402 20.9386C32.2618 20.9386 30.1407 20.9386 27.9814 20.9386C27.7712 21.1552 27.561 21.3718 27.3126 21.5884C27.3126 27.148 27.3126 32.7437 27.3126 38.3574C27.561 38.556 27.7903 38.7726 28.0196 38.9892ZM41.7781 38.9892C43.0967 38.9892 44.4343 38.9892 45.7528 38.9892C45.9822 38.7726 46.2115 38.556 46.4408 38.3574C46.4408 38.0144 46.4408 37.6895 46.4408 37.3466C46.4408 37.3105 46.4408 37.2924 46.4408 37.2744C46.1541 36.769 45.7146 36.4621 45.1414 36.4079C45.1414 32.0939 45.1414 27.7978 45.1414 23.5921C45.5618 23.3935 45.9248 23.213 46.3452 22.9964C46.4026 22.5271 46.4408 22.0397 46.479 21.6968C46.1732 21.3718 45.963 21.1372 45.7911 20.9567C44.4152 20.9567 43.0776 20.9567 41.8928 20.9567C41.568 21.2274 41.3386 21.426 41.052 21.6787C41.1093 22.1119 41.1858 22.5993 41.2431 23.0144C41.7017 23.231 42.0648 23.4116 42.3896 23.574C42.3896 27.87 42.3896 32.1661 42.3896 36.426C42.1985 36.4621 41.9883 36.426 41.9119 36.5162C41.6444 36.769 41.1858 36.8412 41.0902 37.2563C41.0902 37.6173 41.0902 37.9783 41.0902 38.3394C41.3195 38.556 41.5488 38.7726 41.7781 38.9892Z" fill="black"/>
<path d="M20.1648 32.4559C19.0376 32.492 17.8531 32.51 16.6686 32.5461C16.6304 32.5461 16.5731 32.6183 16.4585 32.7086C16.4776 31.5894 17.1463 30.6869 17.2227 29.658C17.7958 28.7555 17.8531 27.6905 18.2352 26.6797C18.3499 26.788 18.5218 26.8963 18.5218 26.9865C18.5409 27.7627 19.0185 28.4306 19.1714 29.1707C19.286 29.6761 19.5917 30.1634 19.6681 30.6689C19.7445 31.3187 20.203 31.806 20.1648 32.4559Z" fill="black"/>
<path d="M35.5483 28.9544C35.4146 29.1529 35.2999 29.3515 35.1471 29.532C34.8795 29.8208 34.5356 29.9833 34.0961 29.9652C32.7584 29.9472 31.4208 29.9652 30.0449 29.9652C30.0449 27.8172 30.0449 25.6692 30.0449 23.467C31.4399 23.467 32.8731 23.449 34.2871 23.467C34.956 23.4851 35.5292 24.1349 35.5483 24.8208C35.5483 25.958 35.5483 27.0952 35.5483 28.2323C35.5483 28.4851 35.5483 28.7197 35.5483 28.9544Z" fill="black"/>
</svg>
