<svg width="53" height="60" viewBox="0 0 53 60" fill="none" xmlns="http://www.w3.org/2000/svg">
<path d="M0.0105623 0.0105726C0.0105623 0.243169 -1.92355e-05 0.401758 0.0105623 0.560346C0.412659 4.95854 0.814756 9.35673 1.20627 13.7655C1.75651 20.0033 2.29617 26.2411 2.8464 32.4684C3.47071 39.4674 4.1056 46.4559 4.70875 53.4549C4.75107 53.9624 4.93096 54.1844 5.40713 54.3113C12.1793 56.1721 18.9303 58.0434 25.7024 59.8936C26.1574 60.0205 26.7077 60.0416 27.1627 59.9148C33.956 58.054 40.7388 56.1615 47.5321 54.2902C48.0506 54.1421 48.2304 53.9095 48.2728 53.3809C48.4844 50.7378 48.7384 48.0841 48.9712 45.4409C49.3627 41.0639 49.7436 36.6868 50.1351 32.3098C50.5901 27.1715 51.0557 22.0438 51.5107 16.9055C51.8493 13.0783 52.2091 9.26157 52.5477 5.4343C52.7064 3.63696 52.844 1.83963 52.9921 0H0.0105623V0.0105726ZM42.7704 15.2774C42.4212 19.1469 42.072 23.0271 41.7228 26.8966C41.3207 31.3477 40.9186 35.7987 40.5165 40.2392C40.4001 41.5185 40.2308 42.7978 40.1991 44.0876C40.1779 44.7748 39.8816 44.9546 39.3102 45.1132C35.2258 46.2127 31.1519 47.344 27.078 48.4647C26.8982 48.5175 26.7288 48.581 26.549 48.6338C26.4855 48.6021 26.422 48.581 26.3479 48.5492C21.9883 47.3651 17.6288 46.1704 13.2692 44.9651C13.0893 44.9123 12.8565 44.6268 12.8353 44.4259C12.5285 41.1273 12.2534 37.8287 11.9571 34.4666H18.6128C18.7292 35.7882 18.8562 37.1309 18.962 38.4842C19.0573 39.7317 19.0467 39.7317 20.2212 40.0489C22.3269 40.6092 24.4432 41.159 26.549 41.7088L26.5278 41.6559C28.8346 41.0427 31.1413 40.4401 33.4481 39.7846C33.6597 39.7212 33.9031 39.3828 33.9348 39.1502C34.0724 38.1353 34.1465 37.1097 34.2311 36.0948C34.3687 34.456 34.5062 32.8173 34.6544 31.1045H26.5278L26.549 31.0622C26.4961 31.0622 26.4326 31.0622 26.3797 31.0622H11.6502C11.4492 28.8737 11.2587 26.7063 11.0576 24.4755H26.3902C26.4431 24.4755 26.5066 24.4755 26.5595 24.4755L26.5384 24.4332H35.247C35.448 22.1601 35.649 19.9399 35.8501 17.6773H26.5278L26.549 17.635C26.4961 17.635 26.4326 17.635 26.3797 17.635C21.163 17.6456 15.9463 17.6456 10.7296 17.6562C10.6556 17.6562 10.5815 17.6245 10.4439 17.5822C10.2535 15.4254 10.0524 13.2686 9.86194 11.0483H26.3797C26.4326 11.0483 26.4961 11.0483 26.549 11.0483L26.5278 11.006H43.1196C43.0032 12.4862 42.8868 13.8818 42.7704 15.2774Z" fill="black"/>
</svg>
