<svg width="32" height="32" version="1.1" xmlns="http://www.w3.org/2000/svg"><path fill="rgb(0,0,0)" stroke="rgb(0,0,0)" stroke-width="1" opacity="0.1568627450980392" d="M 19.5 2 L 20 7.5 L 19 7.5 L 19.5 2 Z "></path><path fill="rgb(0,0,0)" stroke="rgb(0,0,0)" stroke-width="1" opacity="0.1568627450980392" d="M 9.5 3 L 10 9.5 L 9 9.5 L 9.5 3 Z "></path><path fill="rgb(0,0,0)" stroke="rgb(0,0,0)" stroke-width="1" opacity="0.1568627450980392" d="M 28.5 6 L 29 25.5 L 28 25.5 L 28.5 6 Z "></path><path fill="rgb(0,0,0)" stroke="rgb(0,0,0)" stroke-width="1" opacity="0.1568627450980392" d="M 20.5 10 L 23 10.5 L 20.5 11 L 20.5 10 Z "></path><path fill="rgb(0,0,0)" stroke="rgb(0,0,0)" stroke-width="1" opacity="0.1568627450980392" d="M 25.5 26 L 26 31.5 L 25 31.5 L 25.5 26 Z "></path><path fill="rgb(0,0,0)" stroke="rgb(0,0,0)" stroke-width="1" opacity="0.7058823529411765" d="M 17.5 2 L 17 3.5 L 16.5 5 L 14 3.5 L 17.5 2 Z "></path><path fill="rgb(0,0,0)" stroke="rgb(0,0,0)" stroke-width="1" opacity="0.7058823529411765" d="M 24.5 2 L 29 4.5 L 25.5 6 L 24.5 2 Z "></path><path fill="rgb(0,0,0)" stroke="rgb(0,0,0)" stroke-width="1" opacity="0.7058823529411765" d="M 3.5 4 L 6 4.5 L 3.5 5 L 3.5 4 Z "></path><path fill="rgb(0,0,0)" stroke="rgb(0,0,0)" stroke-width="1" opacity="0.7058823529411765" d="M 23.5 6 L 24 10.5 L 23 10.5 L 23.5 6 Z "></path><path fill="rgb(0,0,0)" stroke="rgb(0,0,0)" stroke-width="1" opacity="0.7058823529411765" d="M 23.5 16 L 24 18.5 L 23 18.5 L 23.5 16 Z "></path><path fill="rgb(0,0,0)" stroke="rgb(0,0,0)" stroke-width="1" opacity="0.7058823529411765" d="M 6.5 20 L 8 25.5 L 6 24.5 L 6.5 20 Z "></path><path fill="rgb(0,0,0)" stroke="rgb(0,0,0)" stroke-width="1" opacity="0.7058823529411765" d="M 18.5 24 L 17.5 26 L 18.5 24 Z "></path><path fill="rgb(0,0,0)" stroke="rgb(0,0,0)" stroke-width="1" opacity="0.7058823529411765" d="M 26.5 27 L 29 27.5 L 26.5 28 L 26.5 27 Z "></path><path fill="rgb(0,0,0)" stroke="rgb(0,0,0)" stroke-width="1" opacity="0.9803921568627451" d="M 26.5 0 L 27 3 L 30 4.5 L 29.5 6 L 29 4 L 26 2.5 L 26.5 0 Z "></path><path fill="rgb(0,0,0)" stroke="rgb(0,0,0)" stroke-width="1" opacity="0.9803921568627451" d="M 3.5 3 L 5 3.5 L 2.5 5 L 3.5 3 Z "></path><path fill="rgb(0,0,0)" stroke="rgb(0,0,0)" stroke-width="1" opacity="0.9803921568627451" d="M 17 3 L 19 3.5 L 19 12 L 22.5 12 L 22.5 13 L 18.5 12 L 18 13.5 Q 20.3 14.8 17.5 16 L 17 3 Z "></path><path fill="rgb(0,0,0)" stroke="rgb(0,0,0)" stroke-width="1" opacity="0.9803921568627451" d="M 8.5 4 L 9 12.5 L 8 12.5 L 8.5 4 Z "></path><path fill="rgb(0,0,0)" stroke="rgb(0,0,0)" stroke-width="1" opacity="0.9803921568627451" d="M 14.5 4 Q 16.8 3.3 16 5.5 L 14.5 4 Z "></path><path fill="rgb(0,0,0)" stroke="rgb(0,0,0)" stroke-width="1" opacity="0.9803921568627451" d="M 12.5 7 L 13.5 9 L 12.5 7 Z "></path><path fill="rgb(0,0,0)" stroke="rgb(0,0,0)" stroke-width="1" opacity="0.9803921568627451" d="M 11.5 9 L 12.5 11 L 11.5 9 Z "></path><path fill="rgb(0,0,0)" stroke="rgb(0,0,0)" stroke-width="1" opacity="0.9803921568627451" d="M 10.5 11 L 11.5 13 L 10.5 11 Z "></path><path fill="rgb(0,0,0)" stroke="rgb(0,0,0)" stroke-width="1" opacity="0.9803921568627451" d="M 13.5 18 L 12.5 20 L 13.5 18 Z "></path><path fill="rgb(0,0,0)" stroke="rgb(0,0,0)" stroke-width="1" opacity="0.9803921568627451" d="M 14.5 21 L 13.5 23 L 14.5 21 Z "></path><path fill="rgb(0,0,0)" stroke="rgb(0,0,0)" stroke-width="1" opacity="0.9803921568627451" d="M 29.5 26 L 30 27.5 L 27 29 L 26.5 32 L 26 29.5 L 29 28 L 29.5 26 Z "></path><path fill="rgb(0,0,0)" stroke="rgb(0,0,0)" stroke-width="1" opacity="0.9803921568627451" d="M 2.5 27 L 5 28.5 L 3.5 29 L 2.5 27 Z "></path><path fill="rgb(0,0,0)" stroke="rgb(0,0,0)" stroke-width="1" opacity="0.4392156862745098" d="M 6.5 3 L 7 8.5 L 6 8.5 L 6.5 3 Z "></path><path fill="rgb(0,0,0)" stroke="rgb(0,0,0)" stroke-width="1" opacity="0.4392156862745098" d="M 25.5 14 L 26 18.5 L 25 18.5 L 25.5 14 Z "></path><path fill="rgb(0,0,0)" stroke="rgb(0,0,0)" stroke-width="1" opacity="0.4392156862745098" d="M 15.5 21 L 16.5 23 L 15.5 21 Z "></path><path fill="rgb(0,0,0)" stroke="rgb(0,0,0)" stroke-width="1" opacity="1" d="M 0 0 L 5 0 L 5 3 L 2 4.5 L 2 27.5 L 3.5 29 Q 6.5 28.2 5 32 L 0 31.5 L 0 0 Z "></path><path fill="rgb(0,0,0)" stroke="rgb(0,0,0)" stroke-width="1" opacity="1" d="M 27 0 L 31 0.5 L 31 32 Q 25.4 33.9 27 29 L 30 27.5 L 30 4.5 L 28.5 3 Q 25.5 3.7 27 0 Z "></path><path fill="rgb(0,0,0)" stroke="rgb(0,0,0)" stroke-width="1" opacity="1" d="M 7.5 4 L 8 13 L 11 11.5 L 14.5 5 L 15 6.5 L 11 12.5 L 16 24.5 L 14 25 L 11 15 Q 8.3 13.9 9 16.5 L 7.5 25 L 7.5 4 Z "></path><path fill="rgb(0,0,0)" stroke="rgb(0,0,0)" stroke-width="1" opacity="1" d="M 24.5 4 L 25 24.5 L 24 24.5 L 24 14 L 18.5 14 L 18 12.5 L 19.5 13 Q 23.3 13.8 24 11.5 L 24.5 4 Z "></path><path fill="rgb(0,0,0)" stroke="rgb(0,0,0)" stroke-width="1" opacity="1" d="M 17.5 16 L 18 24.5 L 17 24.5 L 17.5 16 Z "></path><path fill="rgb(0,0,0)" stroke="rgb(0,0,0)" stroke-width="1" opacity="0.5607843137254902" d="M 23.5 3 L 24 5.5 L 23 5.5 L 23.5 3 Z "></path><path fill="rgb(0,0,0)" stroke="rgb(0,0,0)" stroke-width="1" opacity="0.5607843137254902" d="M 25.5 6 L 26 9.5 L 25 9.5 L 25.5 6 Z "></path><path fill="rgb(0,0,0)" stroke="rgb(0,0,0)" stroke-width="1" opacity="0.5607843137254902" d="M 6.5 13 L 7 19.5 L 6 19.5 L 6.5 13 Z "></path><path fill="rgb(0,0,0)" stroke="rgb(0,0,0)" stroke-width="1" opacity="0.4980392156862745" d="M 6.5 9 L 7 12.5 L 6 12.5 L 6.5 9 Z "></path><path fill="rgb(0,0,0)" stroke="rgb(0,0,0)" stroke-width="1" opacity="0.4980392156862745" d="M 25.5 10 L 26 13.5 L 25 13.5 L 25.5 10 Z "></path><path fill="rgb(0,0,0)" stroke="rgb(0,0,0)" stroke-width="1" opacity="0.8705882352941177" d="M 5.5 0 L 6 3.5 L 5 3.5 L 5.5 0 Z "></path><path fill="rgb(0,0,0)" stroke="rgb(0,0,0)" stroke-width="1" opacity="0.8705882352941177" d="M 31.5 0 L 32 31.5 L 31 31.5 L 31.5 0 Z "></path><path fill="rgb(0,0,0)" stroke="rgb(0,0,0)" stroke-width="1" opacity="0.8705882352941177" d="M 2.5 5 L 3 26.5 L 2 26.5 L 2.5 5 Z "></path><path fill="rgb(0,0,0)" stroke="rgb(0,0,0)" stroke-width="1" opacity="0.8705882352941177" d="M 29.5 6 L 30 25.5 L 29 25.5 L 29.5 6 Z "></path><path fill="rgb(0,0,0)" stroke="rgb(0,0,0)" stroke-width="1" opacity="0.8705882352941177" d="M 19.5 14 Q 23.3 13.3 24 15.5 L 22.5 15 L 19 15 L 19 23.5 L 18 23.5 L 18 15.5 L 19.5 14 Z "></path><path fill="rgb(0,0,0)" stroke="rgb(0,0,0)" stroke-width="1" opacity="0.8705882352941177" d="M 8.5 18 L 9 24.5 L 8 24.5 L 8.5 18 Z "></path><path fill="rgb(0,0,0)" stroke="rgb(0,0,0)" stroke-width="1" opacity="0.8705882352941177" d="M 23.5 19 L 25 25.5 L 23 24.5 L 23.5 19 Z "></path><path fill="rgb(0,0,0)" stroke="rgb(0,0,0)" stroke-width="1" opacity="0.8705882352941177" d="M 16.5 24 L 17 26 L 14 25.5 L 16.5 24 Z "></path><path fill="rgb(0,0,0)" stroke="rgb(0,0,0)" stroke-width="1" opacity="0.8705882352941177" d="M 5.5 28 L 6 31.5 L 5 31.5 L 5.5 28 Z "></path><path fill="rgb(0,0,0)" stroke="rgb(0,0,0)" stroke-width="1" opacity="0.047058823529411764" d="M 17.5 0 L 20 1.5 L 18.5 1 L 14.5 3 L 14.5 2 L 17.5 0 Z "></path><path fill="rgb(0,0,0)" stroke="rgb(0,0,0)" stroke-width="1" opacity="0.047058823529411764" d="M 7.5 1 L 10 2.5 L 8.5 2 L 7.5 1 Z "></path><path fill="rgb(0,0,0)" stroke="rgb(0,0,0)" stroke-width="1" opacity="0.047058823529411764" d="M 3.5 6 L 4 25.5 L 3 25.5 L 3.5 6 Z "></path><path fill="rgb(0,0,0)" stroke="rgb(0,0,0)" stroke-width="1" opacity="0.047058823529411764" d="M 20.5 16 L 23 17.5 L 22.5 23 L 22 17 L 20.5 16 Z "></path><path fill="rgb(0,0,0)" stroke="rgb(0,0,0)" stroke-width="1" opacity="0.047058823529411764" d="M 19.5 21 L 20 25.5 L 19 25.5 L 19.5 21 Z "></path><path fill="rgb(0,0,0)" stroke="rgb(0,0,0)" stroke-width="1" opacity="0.047058823529411764" d="M 9.5 22 L 10 25.5 L 9 25.5 L 9.5 22 Z "></path><path fill="rgb(0,0,0)" stroke="rgb(0,0,0)" stroke-width="1" opacity="0.3607843137254902" d="M 16.5 19 L 17 21.5 L 16 21.5 L 16.5 19 Z "></path><path fill="rgb(0,0,0)" stroke="rgb(0,0,0)" stroke-width="1" opacity="0.3607843137254902" d="M 25.5 19 L 26 24.5 L 25 24.5 L 25.5 19 Z "></path><path fill="rgb(0,0,0)" stroke="rgb(0,0,0)" stroke-width="1" opacity="0.2549019607843137" d="M 16.5 6 L 15.5 8 L 16.5 6 Z "></path><path fill="rgb(0,0,0)" stroke="rgb(0,0,0)" stroke-width="1" opacity="0.2549019607843137" d="M 16.5 9 L 17 18.5 L 16 18.5 L 16.5 9 Z "></path><path fill="rgb(0,0,0)" stroke="rgb(0,0,0)" stroke-width="1" opacity="0.2549019607843137" d="M 25.5 25 L 28 26.5 L 26.5 27 L 25.5 25 Z "></path><path fill="rgb(0,0,0)" stroke="rgb(0,0,0)" stroke-width="1" opacity="0.08627450980392157" d="M 19.5 17 L 20 20.5 L 19 20.5 L 19.5 17 Z "></path><path fill="rgb(0,0,0)" stroke="rgb(0,0,0)" stroke-width="1" opacity="0.08627450980392157" d="M 9.5 19 L 10 21.5 L 9 21.5 L 9.5 19 Z "></path><path fill="rgb(0,0,0)" stroke="rgb(0,0,0)" stroke-width="1" opacity="0.08627450980392157" d="M 6.5 28 L 7 31.5 L 6 31.5 L 6.5 28 Z "></path><path fill="rgb(0,0,0)" stroke="rgb(0,0,0)" stroke-width="1" opacity="0" d="M 7.5 0 L 17 0.5 L 12 4.5 L 10.5 8 Q 11.4 2.6 8.5 1 L 7.5 0 Z "></path><path fill="rgb(0,0,0)" stroke="rgb(0,0,0)" stroke-width="1" opacity="0" d="M 19.5 0 L 25 0.5 L 23 1 L 23 8.5 L 21.5 10 L 20 9.5 L 20 1.5 L 19.5 0 Z "></path><path fill="rgb(0,0,0)" stroke="rgb(0,0,0)" stroke-width="1" opacity="0" d="M 4 6 L 6 6.5 L 6 26 L 4 25.5 L 4 6 Z "></path><path fill="rgb(0,0,0)" stroke="rgb(0,0,0)" stroke-width="1" opacity="0" d="M 26 6 L 28 6.5 L 28 26 L 26 25.5 L 26 6 Z "></path><path fill="rgb(0,0,0)" stroke="rgb(0,0,0)" stroke-width="1" opacity="0" d="M 15.5 9 L 16 18.5 L 15 18.5 L 13 12.5 L 15.5 9 Z "></path><path fill="rgb(0,0,0)" stroke="rgb(0,0,0)" stroke-width="1" opacity="0" d="M 20 17 L 22 17 L 22 26.5 L 25 27 L 25 32 L 7.5 32 L 7 27 L 10 25.5 L 10.5 19 L 13 27 Q 18.4 28.5 20 25.5 L 20 17 Z "></path></svg>