<svg width="61" height="60" viewBox="0 0 61 60" fill="none" xmlns="http://www.w3.org/2000/svg">
<path d="M58.8881 27.3573L32.6564 1.12561C31.1556 -0.375204 28.676 -0.375204 27.1752 1.12561L21.7592 6.5416L28.676 13.4584C30.3073 12.9364 32.1344 13.2626 33.3742 14.5677C34.6793 15.8728 35.0055 17.6998 34.4835 19.3312L41.1393 25.987C42.7706 25.4649 44.5977 25.7912 45.9027 27.0963C47.7298 28.8581 47.7298 31.7945 45.9027 33.6215C44.0757 35.4486 41.2045 35.4486 39.3775 33.6215C38.0071 32.2512 37.6809 30.2936 38.3987 28.5971L32.1996 22.398V38.7113C32.6564 38.907 33.0479 39.2333 33.4394 39.5595C35.2665 41.3214 35.2665 44.2578 33.4394 46.0848C31.6124 47.8467 28.7412 47.8467 26.9142 46.0848C25.0871 44.2578 25.0871 41.3866 26.9142 39.5595C27.3709 39.1028 27.893 38.7765 28.415 38.5808V22.0718C27.893 21.876 27.3709 21.4845 26.9142 21.093C25.5439 19.7227 25.2176 17.7651 25.9354 16.0685L19.0838 9.28222L1.13928 27.2268C-0.361532 28.7276 -0.361532 31.2072 1.13928 32.708L27.3057 58.8744C28.8065 60.3752 31.2861 60.3752 32.7869 58.8744L58.8228 32.8385C60.3889 31.2724 60.3889 28.8581 58.8881 27.3573Z" fill="black"/>
</svg>
