<svg width="40" height="40" viewBox="0 0 40 40" fill="none" xmlns="http://www.w3.org/2000/svg">
<path d="M20 10.7422C11.7125 10.7422 5 17.4547 5 25.7422C4.9983 28.8911 5.98822 31.9606 7.82933 34.5152C9.67043 37.0698 12.2692 38.9798 15.257 39.9742C16.007 40.1047 16.2875 39.6547 16.2875 39.2602C16.2875 38.9047 16.268 37.7242 16.268 36.4672C12.5 37.1617 11.525 35.5492 11.225 34.7047C11.0555 34.2727 10.325 32.9422 9.6875 32.5852C9.1625 32.3047 8.4125 31.6102 9.668 31.5922C10.85 31.5727 11.693 32.6797 11.975 33.1297C13.325 35.3977 15.482 34.7602 16.343 34.3672C16.475 33.3922 16.868 32.7367 17.3 32.3617C13.9625 31.9867 10.475 30.6922 10.475 24.9547C10.475 23.3227 11.0555 21.9742 12.0125 20.9227C11.8625 20.5477 11.3375 19.0102 12.1625 16.9477C12.1625 16.9477 13.418 16.5547 16.2875 18.4867C17.5086 18.1478 18.7703 17.9772 20.0375 17.9797C21.3125 17.9797 22.5875 18.1477 23.7875 18.4852C26.6555 16.5352 27.9125 16.9492 27.9125 16.9492C28.7375 19.0117 28.2125 20.5492 28.0625 20.9242C29.018 21.9742 29.6 23.3047 29.6 24.9547C29.6 30.7117 26.0945 31.9867 22.757 32.3617C23.3 32.8297 23.7695 33.7297 23.7695 35.1367C23.7695 37.1422 23.75 38.7547 23.75 39.2617C23.75 39.6547 24.032 40.1227 24.782 39.9727C27.7595 38.9674 30.3469 37.0537 32.1799 34.5009C34.0128 31.9482 34.9991 28.8849 35 25.7422C35 17.4547 28.2875 10.7422 20 10.7422Z" fill="#FFFCF3"/>
</svg>
