<?xml version="1.0" standalone="no"?>
<!DOCTYPE svg PUBLIC "-//W3C//DTD SVG 20010904//EN"
 "http://www.w3.org/TR/2001/REC-SVG-20010904/DTD/svg10.dtd">
<svg version="1.0" xmlns="http://www.w3.org/2000/svg"
 width="512.000000pt" height="512.000000pt" viewBox="0 0 512.000000 512.000000"
 preserveAspectRatio="xMidYMid meet">

<g transform="translate(0.000000,512.000000) scale(0.100000,-0.100000)"
fill="#fffcf3" stroke="none">
<path d="M2495 4898 c-35 -9 -128 -98 -713 -682 -375 -374 -682 -687 -693
-708 -21 -40 -26 -129 -10 -171 16 -40 73 -99 116 -118 51 -24 119 -24 170 0
27 13 194 174 505 485 256 256 468 466 472 466 5 0 8 -853 8 -1895 0 -1688 2
-1900 15 -1933 64 -152 273 -172 370 -34 l30 44 3 1909 c1 1050 6 1909 10
1909 4 0 216 -210 472 -466 311 -311 478 -472 505 -485 174 -81 358 110 276
286 -13 27 -232 253 -692 711 -635 632 -677 672 -721 683 -54 13 -68 13 -123
-1z"/>
</g>
</svg>
