<svg width="61" height="60" viewBox="0 0 61 60" fill="none" xmlns="http://www.w3.org/2000/svg">
<path d="M0.682129 0C20.6956 0 40.6686 0 60.6821 0C60.6821 20.0135 60.6821 40.027 60.6821 60C40.7091 60 20.6956 60 0.682129 60C0.682129 39.946 0.682129 19.973 0.682129 0ZM54.3621 31.7623C53.1467 29.5746 51.4856 28.0756 49.0954 27.549C47.3938 27.1438 45.6922 27.1438 43.9907 27.5084C38.4809 28.6428 36.1311 35.287 39.6963 39.7029C40.9522 41.2424 42.6132 42.1742 44.3553 42.9845C45.8948 43.7137 47.4748 44.4024 49.0143 45.1722C50.0677 45.6988 50.5133 46.6712 50.3918 47.846C50.2702 49.0209 49.46 49.6691 48.4471 50.0338C46.1784 50.844 43.5451 50.1148 42.0056 48.2107C41.6814 47.8055 41.3573 47.3599 41.0332 46.9142C39.4937 47.8055 37.9947 48.6563 36.4958 49.5476C37.4276 51.3707 38.724 52.8292 40.5066 53.8015C43.5451 55.4625 46.7456 55.7056 50.0272 54.8953C52.1744 54.3687 53.9974 53.2748 55.1318 51.2897C57.2385 47.5219 56.0231 42.8224 52.2959 40.5132C50.6349 39.5003 48.7712 38.8116 47.0292 37.9203C46.1784 37.4747 45.2871 37.0695 44.5579 36.5024C43.2615 35.449 43.5045 33.3423 44.963 32.5321C46.381 31.7218 48.3661 32.208 49.46 33.6259C49.7031 33.9095 49.8651 34.2336 50.1082 34.5577C51.4856 33.6259 52.9036 32.6941 54.3621 31.7623ZM16.4823 50.1553C17.2925 51.8974 18.4674 53.2748 20.1284 54.1661C22.2756 55.341 24.6254 55.5435 27.0157 55.1789C29.1629 54.8548 30.9455 53.8825 32.1203 51.9379C33.0927 50.3173 33.3762 48.5348 33.3762 46.6306C33.3762 40.4726 33.3762 34.3147 33.3762 28.1566C33.3762 27.9946 33.3762 27.792 33.3762 27.5895C31.4721 27.5895 29.649 27.5895 27.7449 27.5895C27.7449 27.8325 27.7449 28.0351 27.7449 28.2782C27.7449 34.3552 27.7449 40.3916 27.7449 46.4686C27.7449 47.0358 27.7044 47.6435 27.6234 48.2107C27.4613 49.1425 26.9752 49.8312 26.0434 50.1148C24.3013 50.6415 22.8833 50.1148 21.8705 48.6158C21.6274 48.2107 21.3844 47.8055 21.1008 47.4004C19.5208 48.3322 18.0218 49.2235 16.4823 50.1553Z" fill="black"/>
</svg>
