<?xml version="1.0" standalone="no"?>
<!DOCTYPE svg PUBLIC "-//W3C//DTD SVG 20010904//EN"
 "http://www.w3.org/TR/2001/REC-SVG-20010904/DTD/svg10.dtd">
<svg version="1.0" xmlns="http://www.w3.org/2000/svg"
 width="67.000000pt" height="30.000000pt" viewBox="0 0 67.000000 30.000000"
 preserveAspectRatio="xMidYMid meet">

<g transform="translate(0.000000,30.000000) scale(0.100000,-0.100000)"
fill="#fffcf3" stroke="none">
<path d="M0 150 l0 -150 60 0 c57 0 60 1 60 25 0 21 -5 25 -30 25 l-30 0 0
100 0 100 30 0 c25 0 30 4 30 25 0 24 -3 25 -60 25 l-60 0 0 -150z"/>
<path d="M540 290 c0 -5 -11 -10 -25 -10 -22 0 -25 -4 -25 -39 0 -47 -8 -54
-55 -45 -33 6 -35 8 -35 46 l0 40 -52 -7 c-34 -5 -65 -17 -87 -34 -75 -59 -71
-58 -71 -12 0 37 -2 41 -25 41 -21 0 -25 -5 -25 -28 0 -16 -3 -63 -6 -105 l-7
-77 32 0 c29 0 31 3 31 34 0 18 6 39 14 45 11 9 21 2 52 -40 37 -50 38 -51 81
-46 24 2 47 7 50 10 3 3 8 26 10 52 5 41 8 45 33 45 52 0 57 -7 52 -60 -4 -48
-4 -50 22 -50 26 0 26 1 26 74 0 40 3 87 6 103 5 26 9 28 40 25 l34 -4 0 -98
0 -99 -32 -3 c-25 -2 -34 -8 -36 -25 -3 -22 0 -23 62 -23 l66 0 0 150 0 150
-65 0 c-37 0 -65 -4 -65 -10z m-192 -175 l-3 -46 -40 51 c-22 28 -41 54 -43
59 -2 5 16 23 40 40 l43 32 3 -46 c2 -25 2 -65 0 -90z"/>
</g>
</svg>
