<svg width="61" height="60" viewBox="0 0 61 60" fill="none" xmlns="http://www.w3.org/2000/svg">
<path d="M8.38193 9.7998V50.2998C3.48193 44.8998 0.481934 37.7998 0.481934 29.9998C0.481934 22.1998 3.48193 15.0998 8.38193 9.7998Z" fill="black"/>
<path d="M11.582 14.2002L28.882 48.9002H11.582V14.2002Z" fill="black"/>
<path d="M30.4819 44.9996L13.4819 11.0996H47.4819L30.4819 44.9996Z" fill="black"/>
<path d="M30.4817 0C38.2817 0 45.3817 3 50.6817 7.9H10.2817C15.5817 3 22.6817 0 30.4817 0Z" fill="black"/>
<path d="M49.382 48.9002H32.082L49.382 14.2002V48.9002Z" fill="black"/>
<path d="M50.6817 52.0996C45.3817 56.9996 38.2817 59.9996 30.4817 59.9996C22.6817 59.9996 15.5817 56.9996 10.2817 52.0996H50.6817Z" fill="black"/>
<path d="M52.582 50.1998V9.7998C57.482 15.0998 60.482 22.1998 60.482 29.9998C60.482 37.7998 57.482 44.8998 52.582 50.1998Z" fill="black"/>
<path d="M11.582 14.1992L28.882 48.8992H11.582V14.1992Z" fill="black"/>
<path d="M30.4819 44.9996L13.4819 11.0996H47.4819L30.4819 44.9996Z" fill="black"/>
<path d="M32.082 48.8992L49.382 14.1992V48.8992H32.082Z" fill="black"/>
<path d="M13.4819 11.0996H47.4819L30.4819 44.9996L13.4819 11.0996Z" fill="black"/>
</svg>
