<?xml version="1.0" standalone="no"?>
<!DOCTYPE svg PUBLIC "-//W3C//DTD SVG 20010904//EN"
 "http://www.w3.org/TR/2001/REC-SVG-20010904/DTD/svg10.dtd">
<svg version="1.0" xmlns="http://www.w3.org/2000/svg"
 width="512.000000pt" height="512.000000pt" viewBox="0 0 512.000000 512.000000"
 preserveAspectRatio="xMidYMid meet">

<g transform="translate(0.000000,512.000000) scale(0.100000,-0.100000)"
fill="#000000" stroke="none">
<path d="M2465 4867 c-22 -8 -58 -23 -80 -35 -24 -12 -334 -316 -791 -774
-848 -850 -798 -791 -798 -948 -1 -71 4 -94 26 -142 37 -79 98 -142 177 -181
59 -29 75 -32 151 -32 153 1 144 -7 626 476 l419 419 5 -1567 5 -1568 28 -60
c36 -78 104 -146 181 -182 52 -24 74 -28 146 -28 72 0 94 4 146 28 77 36 145
104 181 182 l28 60 5 1568 5 1567 419 -419 c482 -483 473 -475 626 -476 76 0
92 3 151 32 79 39 140 102 177 181 22 48 27 71 26 142 0 160 48 104 -812 962
-676 674 -763 757 -812 778 -67 28 -177 36 -235 17z m198 -176 c17 -11 357
-345 754 -743 659 -661 722 -727 733 -768 25 -94 -13 -190 -93 -232 -53 -28
-137 -30 -187 -4 -19 10 -251 234 -515 497 -428 427 -484 479 -512 479 -17 0
-41 -9 -54 -19 l-24 -19 -5 -1674 -5 -1673 -24 -38 c-13 -21 -42 -50 -64 -65
-34 -23 -52 -27 -107 -27 -55 0 -73 4 -107 27 -22 15 -51 44 -64 65 l-24 38
-5 1673 -5 1674 -24 19 c-13 10 -37 19 -54 19 -28 0 -84 -52 -512 -479 -264
-263 -496 -487 -515 -497 -84 -43 -205 -11 -257 68 -37 55 -40 154 -6 208 12
19 347 360 745 757 559 558 731 724 758 732 50 15 135 6 173 -18z"/>
</g>
</svg>
