<svg width="66" height="60" viewBox="0 0 66 60" fill="none" xmlns="http://www.w3.org/2000/svg">
<g clip-path="url(#clip0_383_4920)">
<path fill-rule="evenodd" clip-rule="evenodd" d="M63.7284 15.7639L58.0479 23.7083L52.3673 15.7639H55.4646C55.2285 9.86111 50.3535 5.13889 44.3951 5.13889C39.3673 5.13889 35.1035 8.51389 33.7562 13.1111C32.1173 12.5833 30.4229 12.25 28.7007 12.0972C28.8951 11.3611 29.1451 10.625 29.4507 9.91666C30.2701 7.98611 31.4368 6.25 32.9229 4.76389C34.409 3.27778 36.1451 2.09722 38.0757 1.29167C40.0757 0.430555 42.2007 0 44.3951 0C46.5896 0 48.7146 0.430555 50.7146 1.27778C52.6451 2.09722 54.3812 3.26389 55.8673 4.75C57.3534 6.23611 58.5201 7.97222 59.3396 9.90277C60.1312 11.7639 60.5618 13.7361 60.6034 15.7639H63.7284Z" fill="black"/>
<path fill-rule="evenodd" clip-rule="evenodd" d="M55.784 59.9999V56.5832H36.2007C36.3396 56.5138 36.4785 56.4582 36.6174 56.3888C38.7424 55.3749 40.7007 54.0554 42.4507 52.4443C42.6868 52.2221 42.909 52.0138 43.1173 51.8054C43.3535 51.5693 43.6035 51.3193 43.8396 51.0554C44.1173 50.7499 44.3951 50.4304 44.6451 50.111H55.784V46.6943L65.0896 53.3471L55.784 59.9999Z" fill="black"/>
<path fill-rule="evenodd" clip-rule="evenodd" d="M48.5616 35.3192C48.5616 38.2776 47.9783 41.1526 46.8394 43.8609C45.8672 46.1664 44.5061 48.2776 42.8116 50.1248C42.5894 50.3609 42.3672 50.597 42.145 50.8331C41.9366 51.0414 41.7283 51.2359 41.52 51.4442C39.8811 52.9581 38.0478 54.1942 36.0478 55.1526C35.77 55.2914 35.4783 55.4164 35.1866 55.5414C35.1728 55.5414 35.1728 55.5553 35.1589 55.5553C33.4922 56.2637 31.7005 56.6109 29.8811 56.6109H0.992188V50.1526H27.8116C35.9228 50.1526 42.5755 43.6664 42.6866 35.5553C42.6866 35.4859 42.6866 35.4164 42.6866 35.347C42.6866 26.4859 35.4922 19.2914 26.6311 19.2914C17.77 19.2637 10.5755 26.4442 10.5755 35.3192H14.2977L7.64497 44.6248L0.992188 35.3192H4.71441C4.71441 32.3609 5.29774 29.4859 6.43663 26.7776C7.54774 24.1664 9.11719 21.8192 11.1311 19.8053C13.145 17.7914 15.4922 16.2081 18.1033 15.1109C20.8116 13.972 23.6866 13.3887 26.645 13.3887C27.2422 13.3887 27.8255 13.4164 28.4089 13.4581C30.1311 13.597 31.8116 13.9303 33.4505 14.472C34.0339 14.6664 34.6033 14.8748 35.1728 15.1248C37.7839 16.2359 40.1311 17.8053 42.145 19.8192C44.1589 21.8331 45.7422 24.1803 46.8394 26.7914C47.9783 29.4859 48.5616 32.3609 48.5616 35.3192Z" fill="black"/>
</g>
<defs>
<clipPath id="clip0_383_4920">
<rect width="64.1111" height="60" fill="white" transform="translate(0.992188)"/>
</clipPath>
</defs>
</svg>
