<svg width="61" height="60" viewBox="0 0 61 60" fill="none" xmlns="http://www.w3.org/2000/svg">
<path d="M59.9939 4.7749C59.5573 2.48295 57.7838 0.627558 55.5191 0.136426C55.41 0.109141 55.3008 0.109141 55.1644 0.0818554C55.1371 0.0818554 55.1098 0.0272851 55.0825 0H5.04163C5.01435 0.0272851 4.98706 0.0818554 4.93249 0.0818554C2.66783 0.463847 0.75787 2.26467 0.239453 4.55662C0.212168 4.63847 0.157598 4.74761 0.103027 4.85675V55.0341C0.130312 55.0887 0.184883 55.116 0.184883 55.1705C0.730585 57.6808 2.25855 59.236 4.7415 59.8636C4.82335 59.8909 4.87792 59.9454 4.93249 60H55.1644C55.219 59.9727 55.2463 59.9181 55.3008 59.8909C57.7838 59.3179 59.3117 57.8172 59.9393 55.3342C59.9666 55.2524 59.9393 55.1433 59.9666 55.0614C59.9666 55.0341 60.0211 55.0068 60.0484 54.9795V4.93861C60.0484 4.88404 59.9939 4.85675 59.9939 4.7749ZM34.8916 33.2606H34.5914C32.3268 33.2606 30.0348 33.2606 27.7701 33.2606C27.661 33.2606 27.5519 33.2606 27.4427 33.2606C27.4427 33.2879 27.4154 33.2879 27.4154 33.3151C27.4154 33.4243 27.4154 33.5334 27.4154 33.6426V54.6794H21.44V33.2879H13.9366V28.513H34.8643V33.2606H34.8916ZM55.028 47.5307C54.9734 48.4584 54.837 49.3588 54.455 50.2319C54.3458 50.5048 54.264 50.7503 54.1276 51.0232C53.6364 52.06 52.8179 52.7967 51.8629 53.397C50.7715 54.0791 49.5709 54.4611 48.3158 54.7067C46.9243 54.9795 45.5328 55.0614 44.1139 55.0068C43.4318 54.9795 42.7497 54.9795 42.0675 54.8977C40.4577 54.7067 38.8752 54.352 37.4018 53.6426C37.3199 53.6153 37.2108 53.4789 37.2108 53.397C37.2108 51.6235 37.2108 49.8499 37.2108 48.0764C37.2108 48.0491 37.2108 48.0218 37.2108 47.9673C37.6474 48.2674 38.0839 48.5675 38.5205 48.8131C39.5846 49.4407 40.7579 49.8772 41.9584 50.1501C42.9952 50.3956 44.0321 50.4229 45.0689 50.3684C45.8602 50.3411 46.6514 50.1501 47.3609 49.7954C47.9884 49.4679 48.5068 49.0314 48.6433 48.2947C48.7797 47.6398 48.7251 46.985 48.3431 46.412C47.7974 45.5935 47.0334 45.075 46.1876 44.6385C45.2326 44.1746 44.2776 43.7654 43.2954 43.3288C41.8493 42.6739 40.4304 41.9645 39.2572 40.8731C38.3022 39.9727 37.5928 38.9086 37.2654 37.6262C37.0744 36.8622 37.0198 36.0982 37.0471 35.3342C37.0744 33.4516 37.7565 31.8417 39.0935 30.5048C40.1849 29.4134 41.5218 28.7585 42.9952 28.3765C44.0048 28.131 45.0143 27.94 46.0512 27.9127C46.7879 27.9127 47.5246 27.8308 48.234 27.8581C49.3527 27.8854 50.4441 27.94 51.5355 28.2128C52.2449 28.4038 52.9816 28.5948 53.691 28.7585C53.8274 28.7858 53.882 28.8677 53.882 29.0314C53.882 30.7231 53.882 32.442 53.882 34.1337C53.882 34.1883 53.882 34.2428 53.8547 34.3247C53.6364 34.1883 53.4454 34.0791 53.2544 33.97C52.3813 33.4789 51.4536 33.1514 50.4986 32.9059C49.4345 32.6603 48.3704 32.4966 47.279 32.5239C46.5423 32.5512 45.7783 32.6603 45.0962 32.9059C44.2504 33.206 43.5682 33.6971 43.2681 34.5975C43.0225 35.307 43.2135 35.9072 43.6501 36.4802C44.1958 37.1896 44.9325 37.6808 45.7237 38.0628C46.7879 38.5812 47.8793 39.0177 48.9161 39.5089C50.1166 40.0819 51.3172 40.6548 52.3267 41.5007C53.1999 42.2374 53.9911 43.0559 54.4277 44.1473C54.6733 44.8022 54.8915 45.4843 54.8915 46.221C55.0007 46.6576 55.0553 47.0941 55.028 47.5307Z" fill="black"/>
</svg>
